<svg xmlns="http://www.w3.org/2000/svg" width="118" height="77.566" viewBox="0 0 118 77.566">
  <g id="Grupo_67" data-name="Grupo 67" transform="translate(-67 -40.801)">
    <path id="Trazado_42" data-name="Trazado 42" d="M167.145,99.176c0-4.028.012-8.044,0-12.066a6.749,6.749,0,0,1,1.293-4.062,7.09,7.09,0,0,1,4.724-2.937,10.069,10.069,0,0,1,1.649-.132q1.362-.028,2.738,0a7.8,7.8,0,0,1,3.621.874,7.1,7.1,0,0,1,3.759,5.255,6.6,6.6,0,0,1,.068.984q0,12.1-.007,24.208a6.827,6.827,0,0,1-2.148,4.983,7.232,7.232,0,0,1-3.953,1.978,8.306,8.306,0,0,1-1.389.072c-1.1.012-2.2.012-3.286,0a7.224,7.224,0,0,1-7-5.914,4.564,4.564,0,0,1-.066-.751c-.007-4.164,0-8.328,0-12.492Zm9.344.3v12.086a2.4,2.4,0,0,0,.337,1.245,1.006,1.006,0,0,0,1.822.05,2.668,2.668,0,0,0,.386-1.522V87.6a2.613,2.613,0,0,0-.368-1.438,1,1,0,0,0-1.78-.054,2.215,2.215,0,0,0-.4,1.336Z" fill="#af0541" fill-rule="evenodd"/>
    <path id="Trazado_43" data-name="Trazado 43" d="M159.162,80.458h6.954c-.018.252-.03.5-.059.742-.175,1.272-.343,2.549-.525,3.819-.167,1.2-.349,2.388-.51,3.588-.127.93-.235,1.867-.361,2.8-.126.914-.272,1.842-.4,2.756-.106.78-.2,1.565-.3,2.345s-.229,1.574-.338,2.361-.2,1.558-.313,2.343c-.1.748-.191,1.5-.295,2.249-.089.647-.185,1.3-.281,1.937-.116.817-.229,1.638-.343,2.452-.1.78-.188,1.558-.3,2.343s-.222,1.571-.331,2.363c-.1.775-.2,1.558-.308,2.334s-.2,1.526-.307,2.292c-.035.248-.072.484-.1.733-.018.2-.084.309-.32.3q-4.764-.011-9.529,0c-.223,0-.3-.077-.314-.3-.084-.766-.191-1.54-.281-2.3-.087-.728-.156-1.456-.242-2.184s-.193-1.449-.276-2.166c-.061-.553-.12-1.109-.187-1.66q-.108-.875-.21-1.744c-.067-.567-.126-1.125-.2-1.692-.09-.73-.185-1.468-.277-2.2-.065-.551-.12-1.111-.185-1.658-.091-.75-.193-1.5-.291-2.261-.06-.553-.113-1.1-.179-1.66-.091-.744-.186-1.481-.283-2.225q-.092-.833-.181-1.662c-.089-.746-.18-1.49-.27-2.227-.073-.565-.128-1.132-.2-1.7s-.139-1.136-.21-1.715c-.067-.553-.132-1.12-.193-1.685-.09-.739-.187-1.481-.277-2.225-.065-.56-.126-1.109-.192-1.66-.091-.755-.186-1.506-.277-2.261-.025-.179-.03-.358-.048-.567h8.026c.042.413.089.833.12,1.248.049.741.073,1.485.126,2.229.066.957.156,1.916.224,2.876.047.7.077,1.4.12,2.109.065,1,.155,1.993.227,2.994.025.306.043.612.06.918q.09,1.545.181,3.093c.048.867.116,1.733.175,2.6.054.832.115,1.667.174,2.506.062.894.114,1.785.175,2.681.054.794.114,1.59.174,2.393.079,1.109.168,2.219.313,3.34.042-.3.1-.592.127-.882.073-.774.121-1.54.186-2.313.066-.731.157-1.468.223-2.2.043-.484.084-.962.127-1.441.065-.8.149-1.614.222-2.415.048-.495.084-.975.12-1.467.079-.806.162-1.608.235-2.412.042-.483.071-.977.119-1.46.079-.8.152-1.594.224-2.386.048-.479.084-.955.126-1.438.079-.812.156-1.626.228-2.447.043-.531.073-1.073.127-1.608.066-.746.143-1.485.216-2.238.049-.479.085-.953.126-1.434.08-.814.157-1.621.23-2.436.006-.127,0-.254,0-.415" fill="#af0541" fill-rule="evenodd"/>
    <path id="Trazado_44" data-name="Trazado 44" d="M125.559,80.458h6.956c-.047.425-.1.826-.156,1.236-.084.647-.182,1.286-.266,1.942-.114.8-.234,1.612-.342,2.411-.084.651-.157,1.3-.24,1.95-.1.758-.218,1.522-.313,2.284-.116.791-.223,1.585-.326,2.372s-.223,1.577-.337,2.37c-.1.771-.21,1.547-.307,2.325-.133.936-.27,1.882-.4,2.821-.1.785-.2,1.57-.307,2.346-.107.793-.222,1.58-.337,2.37s-.2,1.565-.3,2.349-.225,1.556-.326,2.343c-.108.771-.211,1.547-.314,2.318-.084.632-.162,1.263-.246,1.889-.107.776-.228,1.558-.33,2.343-.086.628-.152,1.261-.247,1.886-.012.078-.138.144-.229.2-.024.025-.084,0-.138,0q-4.711,0-9.41.014c-.289,0-.349-.1-.373-.366-.072-.743-.181-1.494-.271-2.234-.084-.723-.168-1.433-.252-2.154-.09-.744-.175-1.492-.265-2.236-.072-.556-.127-1.112-.2-1.663-.09-.743-.186-1.492-.27-2.238-.072-.547-.127-1.107-.193-1.658-.09-.742-.186-1.485-.271-2.234-.09-.723-.168-1.438-.252-2.155-.1-.744-.187-1.485-.277-2.232-.066-.553-.127-1.113-.193-1.664-.1-.749-.186-1.488-.276-2.234-.085-.7-.163-1.42-.247-2.12-.1-.762-.193-1.511-.277-2.266-.059-.556-.12-1.114-.192-1.667-.084-.739-.18-1.493-.27-2.232-.068-.546-.134-1.091-.193-1.637-.091-.753-.187-1.5-.277-2.268-.1-.824-.187-1.658-.289-2.527h.3c2.473,0,4.951,0,7.423-.006.3,0,.355.126.374.371.06,1.021.115,2.046.174,3.069q.118,1.717.235,3.434c.061.845.12,1.694.175,2.542.078,1.155.156,2.313.234,3.466.06.836.12,1.675.169,2.515.084,1.161.162,2.329.246,3.492.048.839.114,1.672.175,2.513.072,1.154.145,2.314.222,3.461.061.846.12,1.679.181,2.518.042.533.09,1.072.139,1.612.023,0,.041.007.065.007.042-.338.084-.664.127-1,.079-.8.15-1.588.217-2.387.042-.5.09-.99.132-1.492q.108-1.184.217-2.36c.048-.5.084-1,.126-1.5.078-.787.156-1.577.222-2.363.049-.5.084-.994.132-1.5.072-.787.145-1.588.223-2.377.042-.492.079-.987.127-1.472.072-.8.15-1.6.222-2.4.042-.5.079-.993.127-1.492.072-.8.156-1.6.222-2.389.043-.494.078-.977.127-1.469.071-.8.151-1.6.223-2.393.048-.5.084-1,.125-1.5.031-.29.054-.578.072-.889" fill="#af0541" fill-rule="evenodd"/>
    <rect id="Rectángulo_68" data-name="Rectángulo 68" width="7.78" height="38.032" transform="translate(135.703 80.336)" fill="#af0541"/>
    <path id="Trazado_45" data-name="Trazado 45" d="M106.383,105.044c0-.281-.019-.54.007-.8.025-.321-.107-.394-.4-.389-2.553.012-5.112.007-7.665.007-.426,0-.851,0-1.276-.007-.207,0-.288.075-.282.287.012.25.012.5.012.779H93.687V99.7H95.5c-.088-.118-.113-.174-.151-.212a5.956,5.956,0,0,1-2.083-3.738,4.111,4.111,0,0,1,3.472-4.826,6.344,6.344,0,0,1,.758-.057h8.885v-1.2h3.33v6.7h-3.374v-.759h-.375c-2.509,0-5.025-.019-7.534.005a1.6,1.6,0,0,0-1.771,1.611,1.658,1.658,0,0,0,1.515,1.816,4.908,4.908,0,0,0,.745.057c2.352.011,4.711,0,7.064,0h.394v-1h3.342v6.933Z" fill="#af0541" fill-rule="evenodd"/>
    <path id="Trazado_46" data-name="Trazado 46" d="M102.592,106.893v.37c0,2.065.006,4.14-.007,6.209-.006.285.075.379.369.375.7-.019,1.4.012,2.09-.014a2.063,2.063,0,0,0,1.74-.868,1.325,1.325,0,0,0,.019-1.456,1.125,1.125,0,0,0-1.114-.623c-.464.008-.92,0-1.4,0V106.87c.224.021.462.038.694.056a10.262,10.262,0,0,1,1.439.1,4.248,4.248,0,0,1,2.859,2.139,7.249,7.249,0,0,1,.839,3.047,5.627,5.627,0,0,1-.251,2.46,5.32,5.32,0,0,1-3.954,3.357,5.116,5.116,0,0,1-1.22.123c-1.978.011-3.962.023-5.938,0a5.876,5.876,0,0,1-4.418-1.881,4.431,4.431,0,0,1-1.164-2.507,7.375,7.375,0,0,1,.532-4.064A4.489,4.489,0,0,1,97,106.95a3.422,3.422,0,0,1,.719-.08h4.661c.057,0,.113.012.214.023m-2.585,3.324c-1.151,0-2.265-.007-3.378.007a.61.61,0,0,0-.646.629c-.037.734-.063,1.485-.056,2.222.006.527.232.716.752.758a1.489,1.489,0,0,0,.18.007c.946,0,1.9,0,2.841-.007a2.438,2.438,0,0,0,.307-.019Z" fill="#af0541" fill-rule="evenodd"/>
    <g id="Grupo_66" data-name="Grupo 66">
      <path id="Trazado_47" data-name="Trazado 47" d="M67,78.287V40.8H77.745L80.189,60.37q.076.483.254,1.931a33.952,33.952,0,0,1,.332,4.346v.508l.271-.025.325-3.477q.189-1.626.569-3.783l2.948-19.057L95.057,40.8V78.287H88.272V54.906l.127-4.549-.2-.025a25.469,25.469,0,0,1-.171,3.011q-.173,1.436-.515,3.393v.152l-3.686,21.4H77.47l-3.481-20.35-.381-2.976-.356-4.629H73V78.287Z" fill="#af0541"/>
      <path id="Trazado_48" data-name="Trazado 48" d="M96.555,78.287l6-37.486h9.581l4.422,37.486h-7.751l-.737-9.988h-3.711l-.966,9.988Zm8.4-15.5,2.758,0-.838-11.436-.127-3.482-.026-1.7h-.279l-.178,3.457-.14,1.675Z" fill="#af0541"/>
      <path id="Trazado_49" data-name="Trazado 49" d="M118.057,78.287V40.8H126.8q4.752,0,6.748,2.072t2,7.153V69.011q0,5.031-2.148,7.154t-7.1,2.122ZM125.5,45.859V72.975h.407a2.292,2.292,0,0,0,1.639-.483,2.165,2.165,0,0,0,.5-1.6V48.044a2.239,2.239,0,0,0-.508-1.728A3.062,3.062,0,0,0,125.5,45.859Z" fill="#af0541"/>
      <path id="Trazado_50" data-name="Trazado 50" d="M137.778,78.287V40.8h8.743q4.6,0,6.646,1.614t2.045,5.172v3.939a6.512,6.512,0,0,1-1.448,4.524,5.083,5.083,0,0,1-1.83,1.27,6.4,6.4,0,0,1-2.491.458v.2a7.5,7.5,0,0,1,2.669.419,4.757,4.757,0,0,1,1.8,1.182q1.3,1.373,1.3,4.7v9.53a14.471,14.471,0,0,0,.178,2.313,9.441,9.441,0,0,0,.508,2.16H148.5a15.7,15.7,0,0,1-.559-2.135q-.076-.585-.127-1.22t-.051-1.321V64.08a3.956,3.956,0,0,0-.6-2.363,2.081,2.081,0,0,0-1.792-.814h-.1V78.287Zm9.988-24.626V47.688a2.226,2.226,0,0,0-.5-1.7,3.212,3.212,0,0,0-2-.432V55.8h.407a1.76,1.76,0,0,0,2.084-2.135Z" fill="#af0541"/>
      <path id="Trazado_51" data-name="Trazado 51" d="M157.144,78.287V40.8h7.5V78.287Z" fill="#af0541"/>
      <path id="Trazado_52" data-name="Trazado 52" d="M167.03,78.287V40.8h8.742q4.752,0,6.748,2.072t1.995,7.153V69.011q0,5.031-2.148,7.154t-7.1,2.122Zm7.446-32.428V72.975h.407a2.292,2.292,0,0,0,1.639-.483,2.169,2.169,0,0,0,.495-1.6V48.044a2.235,2.235,0,0,0-.508-1.728A3.059,3.059,0,0,0,174.476,45.859Z" fill="#af0541"/>
    </g>
  </g>
</svg>
